# xmcd
#
# Track frame offsets: 
#        150
#        21041
#        40532
#        59161
#        80780
#        103083
#        126093
#        145558
#        164265
#        186461
#        208427
#        228866
#        248408
#        265362
#        283865
#        303659
#
# Disc length: 4212 seconds
#
# Revision: 0
# Processed by: cddbd v1.5PL3 Copyright (c) Steve Scherf et al.
# Submitted via: ExactAudioCopy v0.95a5
#
DISCID=ec107210
DTITLE=Various Artist - 四星绝唱
DYEAR=2000
DGENRE=pop
TTITLE0=真的爱你
TTITLE1=大地
TTITLE2=不再犹豫
TTITLE3=AMANI
TTITLE4=最爱的人伤我最深
TTITLE5=永远不回头
TTITLE6=爱上你的一切
TTITLE7=天天想你
TTITLE8=只因爱你
TTITLE9=一生不可自决
TTITLE10=当我想起你
TTITLE11=深爱着你
TTITLE12=情人的关怀
TTITLE13=何日君再来
TTITLE14=恰似你的温柔
TTITLE15=独上西楼
EXTD=
EXTT0=
EXTT1=
EXTT2=
EXTT3=
EXTT4=
EXTT5=
EXTT6=
EXTT7=
EXTT8=
EXTT9=
EXTT10=
EXTT11=
EXTT12=
EXTT13=
EXTT14=
EXTT15=
PLAYORDER=
